<?xml version="1.0" encoding="utf-8"?>
<!-- Generator: Adobe Illustrator 16.0.0, SVG Export Plug-In . SVG Version: 6.00 Build 0)  -->
<!DOCTYPE svg PUBLIC "-//W3C//DTD SVG 1.1//EN" "http://www.w3.org/Graphics/SVG/1.1/DTD/svg11.dtd">
<svg version="1.1" id="图层_1" xmlns="http://www.w3.org/2000/svg" xmlns:xlink="http://www.w3.org/1999/xlink" x="0px" y="0px"
	 width="40px" height="40px" viewBox="0 0 40 40" enable-background="new 0 0 40 40" xml:space="preserve">
<path fill="#999999" d="M15.587,5.706c0.49,0,0.886,0.397,0.887,0.887v9.816c0,0.489-0.397,0.886-0.887,0.886H5.771
	c-0.49,0-0.886-0.396-0.888-0.886V6.593c0.001-0.49,0.398-0.886,0.888-0.887H15.587 M15.587,3.071H5.771
	c-1.945,0-3.521,1.577-3.521,3.521l0,0v9.816c0,1.945,1.577,3.521,3.521,3.521h9.816c1.944,0,3.521-1.576,3.521-3.521V6.593
	C19.108,4.648,17.532,3.071,15.587,3.071z M29.801,4.529c0.236,0,0.461,0.093,0.627,0.26l5.678,5.679
	c0.346,0.346,0.346,0.907,0,1.254l-5.678,5.677c-0.346,0.348-0.908,0.348-1.256,0l-5.676-5.678c-0.348-0.348-0.348-0.909,0-1.256
	l5.676-5.676C29.338,4.622,29.564,4.528,29.801,4.529 M29.801,1.895c-0.936-0.001-1.832,0.37-2.49,1.032l-5.678,5.676
	c-1.375,1.375-1.375,3.604,0,4.98v0.001l5.678,5.678c1.375,1.375,3.605,1.375,4.98,0l5.678-5.677c1.375-1.375,1.375-3.605,0-4.98
	l0,0l-5.678-5.678C31.631,2.265,30.734,1.893,29.801,1.895z M15.587,23.882c0.49,0.001,0.886,0.397,0.887,0.887v9.814
	c0,0.491-0.397,0.889-0.887,0.889H5.771c-0.49,0-0.886-0.397-0.888-0.889v-9.814c0.001-0.489,0.398-0.886,0.888-0.887H15.587
	 M15.587,21.247H5.771c-1.945,0-3.521,1.577-3.521,3.521l0,0v9.814c0,1.945,1.577,3.522,3.521,3.522h9.816
	c1.944,0,3.521-1.577,3.521-3.522l0,0v-9.814C19.108,22.824,17.532,21.247,15.587,21.247L15.587,21.247z M33.852,23.882
	c0.488,0.001,0.887,0.397,0.889,0.887v9.814c-0.002,0.491-0.4,0.889-0.889,0.889h-9.816c-0.49,0-0.885-0.397-0.887-0.889v-9.814
	c0.002-0.489,0.396-0.886,0.887-0.887H33.852 M33.852,21.247h-9.816c-1.943,0-3.522,1.577-3.522,3.521l0,0v9.814
	c0,1.945,1.579,3.522,3.522,3.522h9.816c1.947,0,3.521-1.577,3.521-3.522v-9.814C37.373,22.824,35.799,21.247,33.852,21.247
	L33.852,21.247z"/>
</svg>
