<?xml version="1.0" encoding="utf-8"?>
<!-- Generator: Adobe Illustrator 16.0.0, SVG Export Plug-In . SVG Version: 6.00 Build 0)  -->
<!DOCTYPE svg PUBLIC "-//W3C//DTD SVG 1.1//EN" "http://www.w3.org/Graphics/SVG/1.1/DTD/svg11.dtd">
<svg version="1.1" id="图层_1" xmlns="http://www.w3.org/2000/svg" xmlns:xlink="http://www.w3.org/1999/xlink" x="0px" y="0px"
	 width="40px" height="40px" viewBox="0 0 40 40" enable-background="new 0 0 40 40" xml:space="preserve">
<path fill="#999999" d="M19.65,4.519c4.036,0,7.318,3.333,7.318,7.428c0,4.096-3.282,7.429-7.318,7.429
	c-4.035,0-7.318-3.333-7.318-7.429C12.332,7.852,15.615,4.519,19.65,4.519L19.65,4.519z M23.503,24.405
	c5.389,0,9.772,4.445,9.774,9.912v0.71c0,0.207-0.038,0.265-0.174,0.375c-0.18,0.142-0.64,0.41-1.716,0.625
	c-1.964,0.393-4.842,0.393-7.885,0.393h-7.004c-3.11,0-6.046,0-7.976-0.391c-1.034-0.211-1.466-0.469-1.633-0.606
	c-0.108-0.088-0.164-0.146-0.164-0.396v-0.71c0-5.467,4.384-9.912,9.772-9.912H23.503L23.503,24.405z M19.65,2.46
	c-5.155,0-9.349,4.257-9.349,9.486s4.194,9.486,9.349,9.486c5.156,0,9.349-4.255,9.349-9.486S24.806,2.46,19.65,2.46L19.65,2.46
	 M23.503,22.348h-7.005c-6.51,0-11.805,5.369-11.805,11.97v0.71c0,3.451,5.209,3.451,11.805,3.451h7.005
	c6.335,0,11.805,0,11.805-3.451v-0.71C35.308,27.718,30.013,22.348,23.503,22.348L23.503,22.348"/>
</svg>
