<?xml version="1.0" encoding="utf-8"?>
<!-- Generator: Adobe Illustrator 16.0.0, SVG Export Plug-In . SVG Version: 6.00 Build 0)  -->
<!DOCTYPE svg PUBLIC "-//W3C//DTD SVG 1.1//EN" "http://www.w3.org/Graphics/SVG/1.1/DTD/svg11.dtd">
<svg version="1.1" id="图层_1" xmlns="http://www.w3.org/2000/svg" xmlns:xlink="http://www.w3.org/1999/xlink" x="0px" y="0px"
	 width="40px" height="40px" viewBox="0 0 40 40" enable-background="new 0 0 40 40" xml:space="preserve">
<path fill="#3399FF" d="M36.538,34.704H3.462c-1.15,0-2.083-0.932-2.083-2.083V3.462c0-1.15,0.932-2.083,2.083-2.083h33.076
	c1.149,0,2.083,0.933,2.083,2.083v29.159C38.621,33.772,37.688,34.704,36.538,34.704z M36.121,4.503c0-0.346-0.28-0.625-0.625-0.625
	l0,0H4.503c-0.345,0-0.625,0.279-0.625,0.625l0,0V31.58c0,0.346,0.28,0.625,0.625,0.625l0,0h30.993c0.345,0,0.625-0.279,0.625-0.625
	l0,0V4.503z M30.236,21.882l-5.404-5.405L19.47,21.84c-0.272,0.271-0.653,0.403-1.034,0.355c-0.349,0.015-0.687-0.117-0.933-0.363
	l-3.428-3.429l-2.665,2.665c-0.488,0.487-1.28,0.487-1.767,0c-0.488-0.488-0.488-1.279,0-1.768l0,0l3.535-3.535
	c0.518-0.476,1.318-0.464,1.821,0.027l3.492,3.491l5.457-5.457c0.487-0.488,1.279-0.488,1.767,0l0,0c0,0,0,0.002,0.003,0.003
	c0.014,0.012,0.028,0.025,0.042,0.038l6.246,6.245c0.487,0.488,0.487,1.28,0,1.769C31.516,22.369,30.726,22.369,30.236,21.882
	L30.236,21.882z M4.587,36.121h30.826c0.69,0,1.249,0.559,1.249,1.25c0,0.69-0.559,1.25-1.249,1.25H4.587
	c-0.69,0-1.25-0.56-1.25-1.25C3.337,36.68,3.897,36.121,4.587,36.121z"/>
</svg>
