<?xml version="1.0" encoding="utf-8"?>
<!-- Generator: Adobe Illustrator 16.0.0, SVG Export Plug-In . SVG Version: 6.00 Build 0)  -->
<!DOCTYPE svg PUBLIC "-//W3C//DTD SVG 1.1//EN" "http://www.w3.org/Graphics/SVG/1.1/DTD/svg11.dtd">
<svg version="1.1" id="图层_1" xmlns="http://www.w3.org/2000/svg" xmlns:xlink="http://www.w3.org/1999/xlink" x="0px" y="0px"
	 width="40px" height="40px" viewBox="0 0 40 40" enable-background="new 0 0 40 40" xml:space="preserve">
<g>
	<path fill="#999999" stroke="#999999" stroke-width="0.75" stroke-miterlimit="10" d="M33.473,19.999
		c-0.252,0-0.591-0.084-0.842-0.084v-4.968c0-6.989-5.643-12.63-12.631-12.63c-6.988,0-12.63,5.641-12.63,12.63v4.968
		c-0.252,0-0.59,0.084-0.842,0.084c-1.853,0-3.368-1.515-3.368-3.368c0-1.6,1.095-2.947,2.61-3.283
		C6.613,6.191,12.674,0.634,20,0.634s13.389,5.558,14.229,12.715c1.516,0.336,2.611,1.683,2.611,3.283
		C36.841,18.484,35.324,19.999,33.473,19.999z M5.686,15.2c-0.505,0.252-0.842,0.842-0.842,1.431c0,0.59,0.337,1.179,0.842,1.432
		V15.2z M34.313,15.2v2.863c0.508-0.253,0.844-0.842,0.844-1.432C35.156,16.042,34.82,15.453,34.313,15.2z M12.506,22.945
		l-0.758-0.758c-0.253-0.252-0.505-0.588-0.674-0.842c-0.168-0.337-0.42-0.59-0.589-0.926c-0.168-0.253-0.336-0.59-0.421-0.927
		c0,0,0-0.084-0.084-0.084c-0.252-0.589-0.505-1.263-0.673-1.936c0-0.084,0-0.169-0.084-0.169c-0.084-0.253-0.084-0.589-0.168-0.842
		V16.21c-0.168-1.769,0-3.705,1.095-5.81c1.853-3.79,5.642-6.399,9.851-6.399c6.063,0,10.946,4.884,10.946,10.945
		c0,0.505,0,0.927-0.086,1.432c0,0.252-0.084,0.59-0.168,0.842c0,0.084-0.084,0.168-0.084,0.253
		c-0.17,0.673-0.336,1.263-0.674,1.852c0,0.084-0.084,0.084-0.084,0.168c-0.168,0.253-0.252,0.59-0.422,0.842v0.085
		c-0.166,0.336-0.336,0.589-0.59,0.926c-0.252,0.254-0.421,0.59-0.672,0.842l-0.76,0.758c3.199,1.854,5.813,4.968,6.99,8.674
		c0.672,1.938,0.926,3.537,0.758,5.389c-0.086,1.264-1.264,2.273-2.525,2.273L7.37,39.366c-1.347,0-2.441-1.011-2.526-2.275v-1.008
		C4.844,30.355,7.959,25.473,12.506,22.945L12.506,22.945z M20,5.686c-5.136,0-9.262,4.125-9.262,9.261
		c0,5.137,4.125,9.262,9.262,9.262c5.136,0,9.264-4.125,9.264-9.262C29.264,9.812,25.136,5.686,20,5.686z M6.528,36.924
		c0,0.422,0.421,0.758,0.842,0.758h25.092c0.42,0,0.927-0.422,0.927-0.843c0.084-1.6-0.168-3.114-0.676-4.632
		c-1.177-3.535-3.704-6.396-6.818-8.082c-0.42,0.253-0.842,0.505-1.264,0.674c-0.506,0.252-0.926,0.422-1.518,0.59
		c-0.42,0.17-0.84,0.252-1.346,0.338c-0.084,0-0.252,0-0.336,0.084c-0.422,0.082-0.928,0.082-1.433,0.082
		c-0.589,0-1.179-0.082-1.684-0.166h-0.168c-0.505-0.086-0.927-0.168-1.432-0.338c-1.01-0.338-2.021-0.759-2.863-1.348
		c-4.378,2.189-7.325,6.736-7.325,11.956L6.528,36.924L6.528,36.924z"/>
	
		<rect x="4.063" y="15.625" fill="#999999" stroke="#999999" stroke-width="0.75" stroke-miterlimit="10" width="2.188" height="2.938"/>
	
		<rect x="33.625" y="15.625" fill="#999999" stroke="#999999" stroke-width="0.75" stroke-miterlimit="10" width="2.188" height="2.938"/>
</g>
</svg>
