<?xml version="1.0" encoding="utf-8"?>
<!-- Generator: Adobe Illustrator 23.0.2, SVG Export Plug-In . SVG Version: 6.00 Build 0)  -->
<svg version="1.1" id="图层_1" xmlns="http://www.w3.org/2000/svg" xmlns:xlink="http://www.w3.org/1999/xlink" x="0px" y="0px"
	 viewBox="0 0 40 40" style="enable-background:new 0 0 40 40;" xml:space="preserve">
<style type="text/css">
	.st0{fill:#3399FF;}
</style>
<g>
	<path class="st0" d="M11.9,25.7l3.9-9.8c-2.3-1.4-3.6-3.9-3.6-6.6c0-4.3,3.5-7.8,7.8-7.8c4.3,0,7.8,3.5,7.8,7.8
		c0,2.8-1.4,5.2-3.6,6.6l3.9,9.8h4.7v8.6H7.2v-8.6H11.9z M15.6,25.7h8.8L21,17.1c-0.6,0.1-1.3,0.1-1.9,0L15.6,25.7z M10.7,28.6H10
		v2.9h20v-2.9H10.7z M20,14.3c1.8,0,3.4-1,4.3-2.5c0.9-1.5,0.9-3.4,0-5c-0.9-1.5-2.5-2.5-4.3-2.5c-2.8,0-5,2.2-5,5
		C15,12.1,17.2,14.3,20,14.3L20,14.3z M7.2,35.7h25.7v2.9H7.2V35.7z M7.2,35.7"/>
</g>
</svg>
